<svg width="153" height="44" viewBox="0 0 153 44" fill="none" xmlns="http://www.w3.org/2000/svg">
<path d="M8.304 23V18.416H0.912V16.16L8.304 6.992H10.968V16.232H13.152V18.416H10.968V23H8.304ZM3.432 16.232H8.304V10.256L3.432 16.232ZM16.0712 23V20.192H18.9272V23H16.0712ZM26.937 23.192C26.057 23.192 25.241 23.088 24.489 22.88C23.737 22.656 23.065 22.392 22.473 22.088V19.64C23.065 19.992 23.705 20.296 24.393 20.552C25.097 20.808 25.873 20.936 26.721 20.936C27.921 20.936 28.849 20.72 29.505 20.288C30.177 19.84 30.513 19.192 30.513 18.344C30.513 17.512 30.193 16.864 29.553 16.4C28.913 15.92 27.945 15.68 26.649 15.68H24.633V13.496H26.697C27.705 13.496 28.457 13.304 28.953 12.92C29.465 12.52 29.721 11.976 29.721 11.288C29.721 10.536 29.425 9.976 28.833 9.608C28.241 9.24 27.441 9.056 26.433 9.056C25.777 9.056 25.161 9.136 24.585 9.296C24.009 9.44 23.425 9.656 22.833 9.944V7.688C23.361 7.432 23.953 7.216 24.609 7.04C25.265 6.864 25.961 6.776 26.697 6.776C28.457 6.776 29.809 7.192 30.753 8.024C31.713 8.84 32.193 9.872 32.193 11.12C32.193 11.648 32.097 12.112 31.905 12.512C31.713 12.912 31.481 13.248 31.209 13.52C30.953 13.776 30.705 13.976 30.465 14.12C30.241 14.248 30.081 14.32 29.985 14.336C30.129 14.368 30.361 14.48 30.681 14.672C31.001 14.848 31.329 15.104 31.665 15.44C32.017 15.776 32.313 16.2 32.553 16.712C32.809 17.208 32.937 17.792 32.937 18.464C32.937 19.84 32.417 20.976 31.377 21.872C30.337 22.752 28.857 23.192 26.937 23.192Z" fill="#0FB3AF"/>
<path d="M4.91211 35.541C4.91211 35.9967 4.78353 36.3695 4.52637 36.6592C4.27246 36.9489 3.91113 37.1426 3.44238 37.2402V37.2793C4.0153 37.3509 4.4401 37.5332 4.7168 37.8262C4.99349 38.1191 5.13184 38.5033 5.13184 38.9785C5.13184 39.6589 4.89583 40.1829 4.42383 40.5508C3.95182 40.9154 3.28125 41.0977 2.41211 41.0977C2.03451 41.0977 1.68783 41.0684 1.37207 41.0098C1.05957 40.9544 0.755208 40.8551 0.458984 40.7119V39.9404C0.768229 40.0934 1.09701 40.2106 1.44531 40.292C1.79688 40.3701 2.12891 40.4092 2.44141 40.4092C3.67513 40.4092 4.29199 39.9258 4.29199 38.959C4.29199 38.0931 3.61165 37.6602 2.25098 37.6602H1.54785V36.9619H2.26074C2.81738 36.9619 3.25846 36.8398 3.58398 36.5957C3.90951 36.3483 4.07227 36.0065 4.07227 35.5703C4.07227 35.222 3.95182 34.9486 3.71094 34.75C3.47331 34.5514 3.14941 34.4521 2.73926 34.4521C2.42676 34.4521 2.13216 34.4945 1.85547 34.5791C1.57878 34.6637 1.26302 34.82 0.908203 35.0479L0.498047 34.501C0.791016 34.2699 1.12793 34.0892 1.50879 33.959C1.8929 33.8255 2.29655 33.7588 2.71973 33.7588C3.41309 33.7588 3.95182 33.9183 4.33594 34.2373C4.72005 34.5531 4.91211 34.9876 4.91211 35.541ZM10.8348 35.541C10.8348 35.9967 10.7062 36.3695 10.449 36.6592C10.1951 36.9489 9.83379 37.1426 9.36504 37.2402V37.2793C9.93796 37.3509 10.3628 37.5332 10.6395 37.8262C10.9161 38.1191 11.0545 38.5033 11.0545 38.9785C11.0545 39.6589 10.8185 40.1829 10.3465 40.5508C9.87448 40.9154 9.20391 41.0977 8.33477 41.0977C7.95716 41.0977 7.61048 41.0684 7.29473 41.0098C6.98223 40.9544 6.67786 40.8551 6.38164 40.7119V39.9404C6.69089 40.0934 7.01966 40.2106 7.36797 40.292C7.71953 40.3701 8.05156 40.4092 8.36406 40.4092C9.59779 40.4092 10.2146 39.9258 10.2146 38.959C10.2146 38.0931 9.53431 37.6602 8.17363 37.6602H7.47051V36.9619H8.1834C8.74004 36.9619 9.18112 36.8398 9.50664 36.5957C9.83216 36.3483 9.99492 36.0065 9.99492 35.5703C9.99492 35.222 9.87448 34.9486 9.63359 34.75C9.39596 34.5514 9.07207 34.4521 8.66191 34.4521C8.34941 34.4521 8.05482 34.4945 7.77812 34.5791C7.50143 34.6637 7.18568 34.82 6.83086 35.0479L6.4207 34.501C6.71367 34.2699 7.05059 34.0892 7.43145 33.959C7.81556 33.8255 8.21921 33.7588 8.64238 33.7588C9.33574 33.7588 9.87448 33.9183 10.2586 34.2373C10.6427 34.5531 10.8348 34.9876 10.8348 35.541ZM16.4545 38.0312V41H15.6244V33.8613H17.5824C18.4581 33.8613 19.1042 34.029 19.5209 34.3643C19.9408 34.6995 20.1508 35.2041 20.1508 35.8779C20.1508 36.8219 19.6723 37.46 18.7152 37.792L20.6537 41H19.6723L17.9438 38.0312H16.4545ZM16.4545 37.3184H17.5922C18.1781 37.3184 18.6078 37.2028 18.8813 36.9717C19.1547 36.7373 19.2914 36.3874 19.2914 35.9219C19.2914 35.4499 19.1514 35.1097 18.8715 34.9014C18.5948 34.693 18.1488 34.5889 17.5336 34.5889H16.4545V37.3184ZM25.175 41L25.0139 40.2383H24.9748C24.7079 40.5736 24.4409 40.8014 24.174 40.9219C23.9104 41.0391 23.5799 41.0977 23.1828 41.0977C22.6522 41.0977 22.2355 40.9609 21.9328 40.6875C21.6333 40.4141 21.4836 40.0251 21.4836 39.5205C21.4836 38.4398 22.3479 37.8734 24.0764 37.8213L24.9846 37.792V37.46C24.9846 37.04 24.8934 36.7308 24.7111 36.5322C24.5321 36.3304 24.244 36.2295 23.8469 36.2295C23.4009 36.2295 22.8964 36.3662 22.3332 36.6396L22.0842 36.0195C22.3479 35.8763 22.6359 35.764 22.9484 35.6826C23.2642 35.6012 23.5799 35.5605 23.8957 35.5605C24.5337 35.5605 25.0057 35.7021 25.3117 35.9854C25.621 36.2686 25.7756 36.7227 25.7756 37.3477V41H25.175ZM23.3439 40.4287C23.8485 40.4287 24.244 40.2904 24.5305 40.0137C24.8202 39.737 24.965 39.3496 24.965 38.8516V38.3682L24.1545 38.4023C23.51 38.4251 23.0445 38.526 22.758 38.7051C22.4748 38.8809 22.3332 39.1559 22.3332 39.5303C22.3332 39.8232 22.4211 40.0462 22.5969 40.1992C22.7759 40.3522 23.0249 40.4287 23.3439 40.4287ZM29.3789 40.4287C29.5221 40.4287 29.6605 40.4189 29.7939 40.3994C29.9274 40.3766 30.0332 40.3538 30.1113 40.3311V40.9512C30.0234 40.9935 29.8932 41.0277 29.7207 41.0537C29.5514 41.083 29.3984 41.0977 29.2617 41.0977C28.2266 41.0977 27.709 40.5524 27.709 39.4619V36.2783H26.9424V35.8877L27.709 35.5508L28.0508 34.4082H28.5195V35.6484H30.0723V36.2783H28.5195V39.4277C28.5195 39.75 28.596 39.9974 28.749 40.1699C28.902 40.3424 29.112 40.4287 29.3789 40.4287ZM32.1961 41H31.3855V35.6484H32.1961V41ZM31.3172 34.1982C31.3172 34.0127 31.3628 33.8776 31.4539 33.793C31.5451 33.7051 31.659 33.6611 31.7957 33.6611C31.9259 33.6611 32.0382 33.7051 32.1326 33.793C32.227 33.8809 32.2742 34.016 32.2742 34.1982C32.2742 34.3805 32.227 34.5173 32.1326 34.6084C32.0382 34.6963 31.9259 34.7402 31.7957 34.7402C31.659 34.7402 31.5451 34.6963 31.4539 34.6084C31.3628 34.5173 31.3172 34.3805 31.3172 34.1982ZM37.777 41V37.5381C37.777 37.1019 37.6777 36.7764 37.4791 36.5615C37.2805 36.3467 36.9697 36.2393 36.5465 36.2393C35.9866 36.2393 35.5764 36.3906 35.316 36.6934C35.0556 36.9961 34.9254 37.4958 34.9254 38.1924V41H34.1148V35.6484H34.774L34.9059 36.3809H34.9449C35.1109 36.1172 35.3437 35.9137 35.6432 35.7705C35.9426 35.624 36.2763 35.5508 36.6441 35.5508C37.2887 35.5508 37.7737 35.707 38.0992 36.0195C38.4247 36.3288 38.5875 36.8252 38.5875 37.5088V41H37.777ZM44.8373 35.6484V36.1611L43.8461 36.2783C43.9372 36.3923 44.0186 36.542 44.0902 36.7275C44.1618 36.9098 44.1977 37.1165 44.1977 37.3477C44.1977 37.8717 44.0186 38.29 43.6605 38.6025C43.3025 38.915 42.8109 39.0713 42.1859 39.0713C42.0264 39.0713 41.8767 39.0583 41.7367 39.0322C41.3917 39.2145 41.2191 39.444 41.2191 39.7207C41.2191 39.8672 41.2794 39.9762 41.3998 40.0479C41.5202 40.1162 41.727 40.1504 42.0199 40.1504H42.9672C43.5466 40.1504 43.9909 40.2725 44.3002 40.5166C44.6127 40.7607 44.7689 41.1156 44.7689 41.5811C44.7689 42.1735 44.5313 42.6243 44.0561 42.9336C43.5808 43.2461 42.8874 43.4023 41.976 43.4023C41.2761 43.4023 40.7357 43.2721 40.3549 43.0117C39.9773 42.7513 39.7885 42.3835 39.7885 41.9082C39.7885 41.5827 39.8926 41.3011 40.101 41.0635C40.3093 40.8258 40.6023 40.6647 40.9799 40.5801C40.8432 40.5182 40.7276 40.4222 40.6332 40.292C40.5421 40.1618 40.4965 40.0104 40.4965 39.8379C40.4965 39.6426 40.5486 39.4717 40.6527 39.3252C40.7569 39.1787 40.9213 39.0371 41.1459 38.9004C40.8692 38.7865 40.643 38.5928 40.4672 38.3193C40.2947 38.0459 40.2084 37.7334 40.2084 37.3818C40.2084 36.7959 40.3842 36.3451 40.7357 36.0293C41.0873 35.7103 41.5854 35.5508 42.2299 35.5508C42.5098 35.5508 42.7621 35.5833 42.9867 35.6484H44.8373ZM40.5697 41.8984C40.5697 42.1882 40.6918 42.4079 40.9359 42.5576C41.1801 42.7074 41.53 42.7822 41.9857 42.7822C42.6661 42.7822 43.169 42.6797 43.4945 42.4746C43.8233 42.2728 43.9877 41.9977 43.9877 41.6494C43.9877 41.3597 43.8982 41.1579 43.7191 41.0439C43.5401 40.9333 43.2032 40.8779 42.7084 40.8779H41.7367C41.3689 40.8779 41.0824 40.9658 40.8773 41.1416C40.6723 41.3174 40.5697 41.5697 40.5697 41.8984ZM41.0092 37.3623C41.0092 37.7367 41.115 38.0199 41.3266 38.2119C41.5381 38.404 41.8327 38.5 42.2104 38.5C43.0014 38.5 43.3969 38.1159 43.3969 37.3477C43.3969 36.5436 42.9965 36.1416 42.1957 36.1416C41.8148 36.1416 41.5219 36.2441 41.3168 36.4492C41.1117 36.6543 41.0092 36.9587 41.0092 37.3623ZM49.5881 39.54C49.5881 40.0381 49.4025 40.4222 49.0314 40.6924C48.6604 40.9626 48.1395 41.0977 47.4689 41.0977C46.7593 41.0977 46.2059 40.9854 45.8088 40.7607V40.0088C46.0659 40.139 46.341 40.2415 46.634 40.3164C46.9302 40.3913 47.215 40.4287 47.4885 40.4287C47.9117 40.4287 48.2372 40.362 48.465 40.2285C48.6929 40.0918 48.8068 39.8851 48.8068 39.6084C48.8068 39.4001 48.7157 39.2227 48.5334 39.0762C48.3544 38.9264 48.0028 38.7507 47.4787 38.5488C46.9807 38.3633 46.6258 38.2021 46.4143 38.0654C46.2059 37.9255 46.0497 37.7676 45.9455 37.5918C45.8446 37.416 45.7941 37.2061 45.7941 36.9619C45.7941 36.5257 45.9715 36.1823 46.3264 35.9316C46.6812 35.6777 47.1678 35.5508 47.7863 35.5508C48.3625 35.5508 48.9257 35.668 49.4758 35.9023L49.1877 36.5615C48.6506 36.3402 48.1639 36.2295 47.7277 36.2295C47.3436 36.2295 47.0539 36.2897 46.8586 36.4102C46.6633 36.5306 46.5656 36.6966 46.5656 36.9082C46.5656 37.0514 46.6014 37.1735 46.673 37.2744C46.7479 37.3753 46.8667 37.4714 47.0295 37.5625C47.1923 37.6536 47.5048 37.7855 47.967 37.958C48.6018 38.1891 49.0298 38.4219 49.2512 38.6562C49.4758 38.8906 49.5881 39.1852 49.5881 39.54Z" fill="#7E7E7E"/>
<path d="M52.3108 7.33894C52.4135 7.13151 52.625 7 52.8562 7C53.0874 7 53.2992 7.13151 53.4015 7.33894L55.3576 11.3028C55.446 11.4821 55.6175 11.6065 55.8158 11.6353L60.1901 12.2708C60.4196 12.304 60.6094 12.4647 60.6809 12.6847C60.7524 12.9046 60.6928 13.1466 60.527 13.308L57.362 16.3937C57.2187 16.5333 57.1533 16.7346 57.1868 16.9319L57.9338 21.289C57.9725 21.5174 57.8793 21.7479 57.6915 21.8841C57.5041 22.0197 57.2563 22.0377 57.0509 21.9306L53.1382 19.8732C52.9613 19.78 52.7494 19.78 52.5722 19.8732L48.6595 21.9302C48.4547 22.0377 48.2063 22.02 48.0189 21.8841C47.8314 21.7482 47.7379 21.5174 47.7769 21.289L48.5239 16.9319C48.5578 16.7346 48.492 16.5333 48.3487 16.3937L45.1837 13.308C45.0179 13.1463 44.9583 12.9046 45.0298 12.6847C45.1013 12.4647 45.2914 12.304 45.5209 12.2708L49.8959 11.6353C50.0938 11.6065 50.2654 11.4821 50.3538 11.3025L52.3108 7.33894Z" fill="#0FB3AF"/>
<path d="M75.3108 7.33894C75.4135 7.13151 75.625 7 75.8562 7C76.0874 7 76.2992 7.13151 76.4015 7.33894L78.3576 11.3028C78.446 11.4821 78.6175 11.6065 78.8158 11.6353L83.1901 12.2708C83.4196 12.304 83.6094 12.4647 83.6809 12.6847C83.7524 12.9046 83.6928 13.1466 83.527 13.308L80.362 16.3937C80.2187 16.5333 80.1533 16.7346 80.1868 16.9319L80.9338 21.289C80.9725 21.5174 80.8793 21.7479 80.6915 21.8841C80.5041 22.0197 80.2563 22.0377 80.0509 21.9306L76.1382 19.8732C75.9613 19.78 75.7494 19.78 75.5722 19.8732L71.6595 21.9302C71.4547 22.0377 71.2063 22.02 71.0189 21.8841C70.8314 21.7482 70.7379 21.5174 70.7769 21.289L71.5239 16.9319C71.5578 16.7346 71.492 16.5333 71.3487 16.3937L68.1837 13.308C68.0179 13.1463 67.9583 12.9046 68.0298 12.6847C68.1013 12.4647 68.2914 12.304 68.5209 12.2708L72.8959 11.6353C73.0938 11.6065 73.2654 11.4821 73.3538 11.3025L75.3108 7.33894Z" fill="#0FB3AF"/>
<path d="M98.3108 7.33894C98.4135 7.13151 98.625 7 98.8562 7C99.0874 7 99.2992 7.13151 99.4015 7.33894L101.358 11.3028C101.446 11.4821 101.618 11.6065 101.816 11.6353L106.19 12.2708C106.42 12.304 106.609 12.4647 106.681 12.6847C106.752 12.9046 106.693 13.1466 106.527 13.308L103.362 16.3937C103.219 16.5333 103.153 16.7346 103.187 16.9319L103.934 21.289C103.972 21.5174 103.879 21.7479 103.691 21.8841C103.504 22.0197 103.256 22.0377 103.051 21.9306L99.1382 19.8732C98.9613 19.78 98.7494 19.78 98.5722 19.8732L94.6595 21.9302C94.4547 22.0377 94.2063 22.02 94.0189 21.8841C93.8314 21.7482 93.7379 21.5174 93.7769 21.289L94.5239 16.9319C94.5578 16.7346 94.492 16.5333 94.3487 16.3937L91.1837 13.308C91.0179 13.1463 90.9583 12.9046 91.0298 12.6847C91.1013 12.4647 91.2914 12.304 91.5209 12.2708L95.8959 11.6353C96.0938 11.6065 96.2654 11.4821 96.3538 11.3025L98.3108 7.33894Z" fill="#0FB3AF"/>
<path d="M121.311 7.33894C121.414 7.13151 121.625 7 121.856 7C122.087 7 122.299 7.13151 122.402 7.33894L124.358 11.3028C124.446 11.4821 124.618 11.6065 124.816 11.6353L129.19 12.2708C129.42 12.304 129.609 12.4647 129.681 12.6847C129.752 12.9046 129.693 13.1466 129.527 13.308L126.362 16.3937C126.219 16.5333 126.153 16.7346 126.187 16.9319L126.934 21.289C126.972 21.5174 126.879 21.7479 126.691 21.8841C126.504 22.0197 126.256 22.0377 126.051 21.9306L122.138 19.8732C121.961 19.78 121.749 19.78 121.572 19.8732L117.659 21.9302C117.455 22.0377 117.206 22.02 117.019 21.8841C116.831 21.7482 116.738 21.5174 116.777 21.289L117.524 16.9319C117.558 16.7346 117.492 16.5333 117.349 16.3937L114.184 13.308C114.018 13.1463 113.958 12.9046 114.03 12.6847C114.101 12.4647 114.291 12.304 114.521 12.2708L118.896 11.6353C119.094 11.6065 119.265 11.4821 119.354 11.3025L121.311 7.33894Z" fill="#0FB3AF"/>
<path d="M144.311 7.33894C144.414 7.13151 144.625 7 144.856 7C145.087 7 145.299 7.13151 145.402 7.33894L147.358 11.3028C147.446 11.4821 147.618 11.6065 147.816 11.6353L152.19 12.2708C152.42 12.304 152.609 12.4647 152.681 12.6847C152.752 12.9046 152.693 13.1466 152.527 13.308L149.362 16.3937C149.219 16.5333 149.153 16.7346 149.187 16.9319L149.934 21.289C149.972 21.5174 149.879 21.7479 149.691 21.8841C149.504 22.0197 149.256 22.0377 149.051 21.9306L145.138 19.8732C144.961 19.78 144.749 19.78 144.572 19.8732L140.659 21.9302C140.455 22.0377 140.206 22.02 140.019 21.8841C139.831 21.7482 139.738 21.5174 139.777 21.289L140.524 16.9319C140.558 16.7346 140.492 16.5333 140.349 16.3937L137.184 13.308C137.018 13.1463 136.958 12.9046 137.03 12.6847C137.101 12.4647 137.291 12.304 137.521 12.2708L141.896 11.6353C142.094 11.6065 142.265 11.4821 142.354 11.3025L144.311 7.33894Z" fill="#E5E5E5"/>
<mask id="mask0_1_201" style="mask-type:alpha" maskUnits="userSpaceOnUse" x="137" y="7" width="16" height="15">
<path d="M144.311 7.33894C144.414 7.13151 144.625 7 144.856 7C145.087 7 145.299 7.13151 145.402 7.33894L147.358 11.3028C147.446 11.4821 147.618 11.6065 147.816 11.6353L152.19 12.2708C152.42 12.304 152.609 12.4647 152.681 12.6847C152.752 12.9046 152.693 13.1466 152.527 13.308L149.362 16.3937C149.219 16.5333 149.153 16.7346 149.187 16.9319L149.934 21.289C149.972 21.5174 149.879 21.7479 149.691 21.8841C149.504 22.0197 149.256 22.0377 149.051 21.9306L145.138 19.8732C144.961 19.78 144.749 19.78 144.572 19.8732L140.659 21.9302C140.455 22.0377 140.206 22.02 140.019 21.8841C139.831 21.7482 139.738 21.5174 139.777 21.289L140.524 16.9319C140.558 16.7346 140.492 16.5333 140.349 16.3937L137.184 13.308C137.018 13.1463 136.958 12.9046 137.03 12.6847C137.101 12.4647 137.291 12.304 137.521 12.2708L141.896 11.6353C142.094 11.6065 142.265 11.4821 142.354 11.3025L144.311 7.33894Z" fill="#E5E5E5"/>
</mask>
<g mask="url(#mask0_1_201)">
<path d="M140 17.5L142.5 11L141.5 10.5L136.5 11L136 13.5L140 17.5Z" fill="#0FB3AF"/>
</g>
</svg>
